<svg id="Layer_1" enable-background="new 0 0 512 512" height="512" viewBox="0 0 512 512" width="512" xmlns="http://www.w3.org/2000/svg"><path clip-rule="evenodd" d="m256 0c-141.2 0-256 114.8-256 256s114.8 256 256 256 256-114.8 256-256-114.8-256-256-256z" fill="#434647" fill-rule="evenodd"/><path d="m256.1 106c-2.9 0-5.6 1.3-7.4 3.6l-101.6 130.4c-2.2 2.8-2.6 6.7-1 9.9 1.5 3.2 4.9 5.3 8.4 5.3h66.8v141.5c0 5.2 4.2 9.4 9.4 9.4h50.6c5.2 0 9.4-4.2 9.4-9.4v-141.6h66.8c3.6 0 6.9-2 8.4-5.3 1.6-3.2 1.2-7-1.1-9.9l-101.4-130.3c-1.7-2.2-4.5-3.6-7.3-3.6z" fill="#fff"/></svg>